<?xml version="1.0" encoding="UTF-8"?><svg xmlns="http://www.w3.org/2000/svg" viewBox="0 0 228 268" role="img" aria-labelledby="pin-vitorias-elite-title"><title id="pin-vitorias-elite-title">Pin Quadrafy</title><defs><linearGradient id="bg" x1="0" y1="0" x2="1" y2="1"><stop stop-color="#1b2a4a"/><stop offset="1" stop-color="#10192e"/></linearGradient></defs><path d="M82 181 68 254l46-27 46 27-14-73Z" fill="#1b2a4a"/><circle cx="114" cy="111" r="92" fill="url(#bg)" stroke="#f5d16b" stroke-width="14"/><g transform="translate(0 2)"><path d="M83 85h12v-9h22v9h12c0 15-6 25-18 28v12h11v10H84v-10h11v-12c-12-3-18-13-18-28Z" fill="#ff6b4a"/><path d="M83 91c-9 0-12 4-12 10 0 8 7 13 16 13M129 91c9 0 12 4 12 10 0 8-7 13-16 13" fill="none" stroke="#ff6b4a" stroke-width="7" stroke-linecap="round"/></g></svg>