<?xml version="1.0" encoding="UTF-8"?><svg xmlns="http://www.w3.org/2000/svg" viewBox="0 0 228 268" role="img" aria-labelledby="pin-sequencia-prata-title"><title id="pin-sequencia-prata-title">Pin Quadrafy</title><defs><linearGradient id="bg" x1="0" y1="0" x2="1" y2="1"><stop stop-color="#1b2a4a"/><stop offset="1" stop-color="#10192e"/></linearGradient></defs><path d="M82 181 68 254l46-27 46 27-14-73Z" fill="#1b2a4a"/><circle cx="114" cy="111" r="92" fill="url(#bg)" stroke="#cbd3df" stroke-width="14"/><g transform="translate(0 2)"><path d="M109 64c10 25-4 31 7 42 7-4 10-13 8-22 18 19 16 55-10 66-24 10-46-7-43-30 2-17 14-24 20-39 5 8 8 11 12 2 3-7 4-13 6-19Z" fill="#ff6b4a"/><path d="M107 116c-6 10-3 20 5 23 10-5 11-17 5-27-1 8-5 12-10 4Z" fill="#f6f4ef"/></g></svg>